# xmcd
#
# Track frame offsets: 
#        150
#        14576
#        31032
#        52623
#        77797
#        103282
#        125983
#        150209
#        171361
#        188025
#        210636
#
# Disc length: 3114 seconds
#
# Revision: 0
# Processed by: cddbd v1.5.2PL0 Copyright (c) Steve Scherf et al.
# Submitted via: ExactAudioCopy v1.0b4
#
DISCID=880c280b
DTITLE=Coco Montoya - Hard Truth
DYEAR=2017
DGENRE=Blues
TTITLE0=Before The Bullets Fly
TTITLE1=I Want To Shout About It
TTITLE2=Lost In The Bottle
TTITLE3=Old Habits Are Hard To Break
TTITLE4=I'll Find Someone Who Will
TTITLE5=Devil Don't Sleep
TTITLE6=The Moon Is Full
TTITLE7=Hard As Hell
TTITLE8='Bout To Make Me Leave Home
TTITLE9=Where Can A Man Go From Here?
TTITLE10=Truth Be Told
EXTD=
EXTT0=
EXTT1=
EXTT2=
EXTT3=
EXTT4=
EXTT5=
EXTT6=
EXTT7=
EXTT8=
EXTT9=
EXTT10=
PLAYORDER=
